<?xml version="1.0" standalone="no"?>
<!DOCTYPE svg PUBLIC "-//W3C//DTD SVG 20010904//EN"
 "http://www.w3.org/TR/2001/REC-SVG-20010904/DTD/svg10.dtd">
<svg version="1.0" xmlns="http://www.w3.org/2000/svg"
 width="16.000000pt" height="16.000000pt" viewBox="0 0 16.000000 16.000000"
 preserveAspectRatio="xMidYMid meet">
<metadata>
Created by potrace 1.11, written by Peter Selinger 2001-2013
</metadata>
<g transform="translate(0.000000,16.000000) scale(0.005424,-0.005424)"
fill="#000000" stroke="none">
<path d="M511 2739 c-42 -25 -54 -75 -34 -142 18 -61 61 -147 74 -147 5 0 8
-3 7 -7 -2 -7 29 -61 42 -73 3 -3 18 -23 35 -45 16 -22 37 -46 47 -53 20 -15
25 -44 6 -37 -66 22 -364 29 -419 10 -22 -8 -43 -15 -47 -16 -32 -8 -62 -23
-62 -31 0 -5 -4 -7 -9 -4 -10 7 -31 -38 -31 -68 0 -29 44 -94 90 -133 51 -43
130 -95 130 -86 0 4 4 3 8 -3 6 -9 94 -55 115 -60 4 -1 10 -3 15 -4 4 -1 10
-2 15 -1 4 0 7 -4 7 -9 0 -5 3 -9 8 -8 4 1 23 -5 42 -14 32 -13 78 -27 97 -29
5 0 13 -4 18 -8 9 -7 40 -17 85 -26 8 -2 42 -10 75 -19 33 -8 83 -18 110 -22
28 -3 53 -8 57 -10 4 -3 56 -7 115 -11 59 -3 110 -8 113 -10 2 -2 -14 -21 -36
-41 -22 -20 -55 -55 -72 -78 -41 -54 -124 -194 -114 -194 4 0 2 -4 -3 -8 -11
-8 -46 -80 -46 -97 0 -5 -8 -18 -17 -29 -9 -10 -16 -20 -14 -22 1 -2 2 -5 1
-6 0 -2 -3 -12 -5 -23 -9 -37 -10 -40 -16 -50 -12 -19 -30 -139 -31 -201 0
-34 5 -82 12 -107 14 -47 76 -131 91 -122 5 3 10 1 12 -5 1 -5 24 -14 49 -18
36 -7 55 -5 80 6 19 8 36 16 39 16 3 1 23 12 45 25 38 22 195 177 195 191 0 4
11 20 24 35 14 16 23 32 20 37 -3 4 0 8 5 8 6 0 11 7 11 15 0 8 4 15 8 15 8 0
121 215 122 232 0 4 9 27 19 51 10 24 24 69 31 100 7 31 17 57 21 57 4 0 18
-13 32 -29 14 -17 28 -27 31 -24 3 4 6 1 6 -6 0 -7 15 -27 34 -44 105 -99 125
-117 131 -117 3 0 16 -9 28 -21 12 -11 42 -35 67 -52 25 -17 48 -35 52 -41 5
-7 8 -7 8 -1 0 6 3 6 8 0 10 -15 115 -80 124 -77 5 1 8 -2 8 -8 0 -5 7 -10 15
-10 8 0 15 -4 15 -9 0 -5 8 -11 18 -14 9 -3 58 -23 107 -45 50 -21 114 -45
144 -52 66 -15 156 -16 174 -1 8 6 17 8 20 4 4 -3 7 1 7 9 0 9 5 18 11 20 16
5 14 118 -3 118 -4 0 -7 3 -6 8 4 13 -13 52 -23 52 -5 0 -8 3 -7 8 4 11 -42
82 -53 82 -5 0 -8 3 -7 8 4 10 -25 43 -119 138 -46 46 -83 84 -83 86 0 2 53 4
118 4 149 1 265 18 297 44 6 5 15 9 20 9 6 0 18 8 28 16 9 8 17 11 17 7 1 -4
10 10 21 31 14 27 17 42 10 56 -6 10 -8 21 -6 23 16 15 -166 159 -205 163 -3
1 -24 11 -47 23 -24 12 -43 19 -43 15 0 -5 -4 -3 -8 2 -7 11 -104 45 -128 45
-8 0 -14 5 -14 12 0 6 -3 9 -6 6 -3 -3 -21 -2 -41 4 -19 5 -43 11 -52 13 -9 2
-38 8 -64 14 -26 6 -65 13 -85 16 -20 3 -48 7 -62 10 -41 8 -160 17 -227 17
-35 0 -63 2 -63 5 0 2 15 20 34 39 33 34 104 154 90 154 -3 0 -1 7 6 15 7 8 9
15 5 15 -4 0 -3 6 3 13 9 11 9 165 0 197 -12 38 -34 77 -56 98 -14 12 -21 22
-16 22 21 0 -75 56 -116 67 -37 11 -117 7 -137 -6 -13 -7 -23 -11 -23 -7 0 16
-91 -44 -136 -90 -47 -48 -97 -129 -100 -164 -1 -8 -6 -27 -12 -41 -6 -15 -8
-30 -4 -34 4 -4 2 -6 -5 -4 -6 2 -51 42 -101 89 -118 113 -149 140 -157 140
-4 0 -15 8 -24 18 -22 24 -171 125 -171 116 0 -4 -7 1 -15 12 -8 10 -15 15
-15 9 0 -6 -3 -5 -8 1 -10 16 -115 67 -192 93 -85 30 -151 33 -189 10z m311
-195 c35 -14 71 -33 82 -42 10 -10 20 -16 22 -14 4 2 83 -46 94 -58 3 -3 23
-18 45 -34 56 -41 204 -193 240 -246 16 -25 32 -47 35 -50 10 -10 40 -81 40
-95 0 -10 -37 5 -117 45 -117 59 -295 129 -340 132 -13 2 -23 5 -23 9 0 3 -6
6 -12 7 -15 1 -53 9 -77 17 -26 8 -74 63 -124 142 -48 75 -55 90 -63 139 -4
27 0 39 20 59 21 21 32 24 70 20 25 -2 73 -16 108 -31z m1009 -28 c80 -33 121
-104 122 -208 0 -86 -43 -180 -108 -234 -23 -20 -46 -36 -49 -36 -3 1 -21 -5
-39 -13 -18 -8 -53 -12 -80 -10 -170 15 -232 233 -113 402 64 92 181 135 267
99z m-1131 -389 c14 -3 39 -8 55 -11 65 -12 77 -15 113 -27 242 -77 402 -178
402 -254 0 -23 -32 -57 -65 -69 -156 -57 -552 22 -751 150 -71 45 -93 64 -111
98 -27 51 -6 83 72 112 29 11 230 11 285 1z m1460 -282 c19 -3 44 -7 55 -9
227 -35 465 -156 465 -236 0 -61 -108 -101 -277 -102 -81 0 -82 0 -140 44
-127 97 -342 218 -438 248 -22 7 -44 16 -48 20 -10 8 34 27 83 35 19 3 36 7
37 9 5 5 226 -3 263 -9z m-724 -158 c7 -35 13 -62 14 -62 1 0 3 -7 5 -15 2 -8
6 -28 10 -45 13 -57 13 -239 0 -282 -7 -24 -11 -43 -10 -43 2 0 -4 -24 -14
-53 -27 -76 -93 -207 -105 -207 -25 0 -321 151 -324 166 -2 8 0 23 4 32 4 9 8
19 9 22 18 54 84 182 131 256 45 72 186 214 234 236 35 17 42 16 46 -5z m493
-77 c277 -107 603 -420 569 -547 -46 -175 -655 177 -778 449 -27 60 -25 92 6
117 34 27 98 21 203 -19z"/>
<path d="M564 1319 c-16 -27 99 -105 177 -119 45 -8 63 1 55 26 -18 55 -208
131 -232 93z"/>
<path d="M503 1035 c-33 -14 -28 -30 14 -50 73 -35 223 -27 223 11 0 35 -181
65 -237 39z"/>
<path d="M1523 875 c-17 -13 -17 -14 1 -34 11 -12 25 -21 33 -21 7 0 13 -4 13
-10 0 -5 3 -9 8 -8 4 1 21 -4 37 -11 43 -18 131 -26 139 -12 14 21 -14 49 -76
74 -76 32 -131 39 -155 22z"/>
<path d="M643 771 c-100 -34 -158 -103 -90 -106 38 -3 136 32 175 62 67 51 15
78 -85 44z"/>
<path d="M1366 692 c-9 -15 34 -83 76 -123 77 -72 134 -76 105 -8 -36 81 -157
169 -181 131z"/>
<path d="M858 557 c-58 -57 -106 -180 -77 -197 39 -25 114 85 135 197 1 7 -4
17 -11 23 -10 8 -21 3 -47 -23z"/>
<path d="M1149 558 c-2 -22 5 -74 15 -113 6 -25 46 -92 64 -108 20 -18 21 -18
31 2 6 11 11 27 11 36 0 21 -40 139 -49 145 -5 3 -13 15 -20 28 -12 23 -50 31
-52 10z"/>
<path d="M660 191 c-14 -28 -12 -41 7 -41 9 0 14 3 10 6 -3 4 1 13 9 21 14 15
11 33 -6 33 -5 0 -14 -9 -20 -19z"/>
<path d="M527 23 c-13 -12 -7 -23 12 -23 26 0 35 16 15 24 -19 7 -19 7 -27 -1z"/>
</g>
</svg>
